<svg width="14" height="14" viewBox="0 0 14 14" fill="none" xmlns="http://www.w3.org/2000/svg">
<g id="addAfter" clip-path="url(#clip0_687_64757)">
<g id="interactive-button/search">
<path id="Vector" fill-rule="evenodd" clip-rule="evenodd" d="M9.23306 3.45884C7.63841 1.8642 5.05299 1.8642 3.45835 3.45884C1.86371 5.05348 1.86371 7.6389 3.45835 9.23354C5.05299 10.8282 7.63841 10.8282 9.23306 9.23354C10.8277 7.6389 10.8277 5.05348 9.23306 3.45884ZM2.63339 2.63388C4.68364 0.583628 8.00776 0.583628 10.058 2.63388C11.9688 4.54471 12.0988 7.56205 10.4478 9.62337L12.5329 11.7084L11.7079 12.5334L9.62288 10.4483C7.56156 12.0993 4.54422 11.9693 2.63339 10.0585C0.58314 8.00825 0.58314 4.68413 2.63339 2.63388Z" fill="#4E5969"/>
</g>
</g>
<defs>
<clipPath id="clip0_687_64757">
<rect width="14" height="14" fill="white" transform="translate(0 0.000244141)"/>
</clipPath>
</defs>
</svg>
