<?xml version="1.0" encoding="UTF-8"?>
<svg width="24px" height="24px" viewBox="0 0 24 24" version="1.1" xmlns="http://www.w3.org/2000/svg" xmlns:xlink="http://www.w3.org/1999/xlink">
    <title>algorithm icon</title>
    <defs>
        <polygon id="path-1" points="1 22 22 22 22 2 1 2"></polygon>
    </defs>
    <g id="页面-1" stroke="none" stroke-width="1" fill="none" fill-rule="evenodd">
        <g id="综合管理系统&gt;算法管理&gt;原始数据" transform="translate(-28.000000, -179.000000)">
            <g id="algorithm-icon" transform="translate(28.000000, 179.000000)">
                <rect id="矩形" fill="#D8D8D8" opacity="0" x="0" y="0" width="24" height="24"></rect>
                <mask id="mask-2" fill="white">
                    <use xlink:href="#path-1"></use>
                </mask>
                <g id="Clip-6"></g>
                <path d="M10.4662462,19.5545844 L3.46657334,19.5545844 L3.46657334,16.5545573 L10.4669219,16.5545573 L10.4662462,19.5545844 Z M20.9660932,15.554706 L2.96587274,15.554706 C2.68977791,15.554706 2.46598299,15.7787721 2.46598299,16.0545979 L2.46598299,20.0547465 C2.46598299,20.3308425 2.6900482,20.554706 2.96587274,20.554706 L20.9660932,20.554706 C21.2421881,20.554706 21.465983,20.3305722 21.465983,20.0547465 L21.465983,16.0545979 C21.465983,15.7790424 21.2419178,15.554706 20.965823,15.554706 L20.9660932,15.554706 Z" id="Fill-10" fill="#FFFFFF" mask="url(#mask-2)"></path>
                <path d="M10.4662462,13.5548546 L3.46657334,13.5548546 L3.46657334,10.5548276 L10.4669219,10.5548276 L10.4662462,13.5548546 Z M20.9660932,9.55470598 L2.96587274,9.55470598 C2.68977791,9.55470598 2.46598299,9.77877215 2.46598299,10.0545979 L2.46598299,14.0547465 C2.46598299,14.3308425 2.6900482,14.554706 2.96587274,14.554706 L20.9660932,14.554706 C21.2421881,14.554706 21.465983,14.3305722 21.465983,14.0547465 L21.465983,10.0545979 C21.465983,9.77904243 21.2419178,9.55470598 20.965823,9.55470598 L20.9660932,9.55470598 Z" id="Fill-19" fill="#FFFFFF" mask="url(#mask-2)"></path>
                <path d="M18.9666623,7.55485464 C18.1397363,7.55485464 17.4666623,6.88177772 17.4666623,6.05484113 C17.4666623,5.22790454 18.1397363,4.55482761 18.9666623,4.55482761 C19.7936024,4.55482761 20.4666765,5.22790454 20.4666765,6.05484113 C20.4666765,6.88177772 19.7936024,7.55485464 18.9666623,7.55485464 L18.9666623,7.55485464 Z M10.4662462,7.55485464 L3.46657334,7.55485464 L3.46657334,4.55482761 L10.4669219,4.55482761 L10.4662462,7.55485464 Z M20.9660932,3.55470598 L2.96587274,3.55470598 C2.68977791,3.55470598 2.46598299,3.77877215 2.46598299,4.05459787 L2.46598299,8.05474653 C2.46598299,8.33084253 2.6900482,8.55470598 2.96587274,8.55470598 L20.9660932,8.55470598 C21.2421881,8.55470598 21.465983,8.33057225 21.465983,8.05474653 L21.465983,4.05459787 C21.465983,3.77904243 21.2419178,3.55470598 20.965823,3.55470598 L20.9660932,3.55470598 Z" id="Fill-19备份" fill="#FFFFFF" mask="url(#mask-2)"></path>
            </g>
        </g>
    </g>
</svg>