<svg width="18" height="18" viewBox="0 0 18 18" fill="none" xmlns="http://www.w3.org/2000/svg">
<g id="interactive-button/select-all">
<path id="Vector" fill-rule="evenodd" clip-rule="evenodd" d="M3.84105 4.30699L5.96237 2.18567L7.02303 3.24633L3.84105 6.42831L1.71973 4.30699L2.78039 3.24633L3.84105 4.30699ZM16.1251 4.87501H7.87506V3.37501H16.1251V4.87501ZM3.84105 9.18199L5.96237 7.06067L7.02303 8.12133L3.84105 11.3033L1.71973 9.18199L2.78039 8.12133L3.84105 9.18199ZM16.1251 10.125H7.87506V8.62501H16.1251V10.125ZM3.84105 14.057L5.96237 11.9357L7.02303 12.9963L3.84105 16.1783L1.71973 14.057L2.78039 12.9963L3.84105 14.057ZM16.1251 15.375H7.87506V13.875H16.1251V15.375Z" fill="#4E5969"/>
</g>
</svg>
