<?xml version="1.0" encoding="UTF-8"?>
<svg width="16px" height="16px" viewBox="0 0 16 16" version="1.1" xmlns="http://www.w3.org/2000/svg" xmlns:xlink="http://www.w3.org/1999/xlink">
    <title>cloud icon备份</title>
    <g id="页面-1" stroke="none" stroke-width="1" fill="none" fill-rule="evenodd">
        <g id="综合管理系统&gt;数据管理&gt;数据列表" transform="translate(-608.000000, -140.000000)">
            <g id="cloudage" transform="translate(608.000000, 136.000000)">
                <g id="cloud-icon备份" transform="translate(0.000000, 4.000000)">
                    <rect id="矩形" fill="#D8D8D8" opacity="0" x="0" y="0" width="16" height="16"></rect>
                    <path d="M7,3.51 C7.80392146,3.51 8.54441124,3.78172737 9.13444209,4.23855259 C9.83661659,4.78220385 10.3261996,5.58754639 10.4557509,6.50873105 L10.4557509,6.50873105 L11.5,6.51 C12.3256657,6.51 13.0731657,6.84466715 13.6142493,7.38575072 C14.1553329,7.9268343 14.49,8.6743343 14.49,9.5 C14.49,10.3256657 14.1553329,11.0731657 13.6142493,11.6142493 C13.0731657,12.1553329 12.3256657,12.49 11.5,12.49 L11.5,12.49 L4.5,12.49 C3.6743343,12.49 2.9268343,12.1553329 2.38575072,11.6142493 C1.84466715,11.0731657 1.51,10.3256657 1.51,9.5 C1.51,8.90328471 1.68465993,8.3473297 1.98594171,7.88070004 C2.29711134,7.39875596 2.74297387,7.01189142 3.27038835,6.77359022 C3.70654383,5.56962909 4.14140654,4.8432814 4.75742963,4.32589061 C5.363827,3.81658434 6.14612534,3.51 7,3.51 Z" id="形状结合" stroke="#FFFFFF" stroke-width="1.02"></path>
                </g>
            </g>
        </g>
    </g>
</svg>