<svg width="18" height="19" viewBox="0 0 18 19" fill="none" xmlns="http://www.w3.org/2000/svg">
<g id="UserGroup">
<path id="Vector" d="M6.75 8.88477C8.19975 8.88477 9.375 7.70951 9.375 6.25977C9.375 4.81002 8.19975 3.63477 6.75 3.63477C5.30025 3.63477 4.125 4.81002 4.125 6.25977C4.125 7.70951 5.30025 8.88477 6.75 8.88477Z" stroke="#666666" stroke-width="1.5"/>
<path id="Vector_2" d="M12.75 9.25977C13.5784 9.25977 14.25 8.58819 14.25 7.75977C14.25 6.93134 13.5784 6.25977 12.75 6.25977C11.9216 6.25977 11.25 6.93134 11.25 7.75977C11.25 8.58819 11.9216 9.25977 12.75 9.25977Z" stroke="#666666" stroke-width="1.5"/>
<path id="Vector_3" d="M12.75 11.8848H14.25C14.6478 11.8848 15.0294 12.0428 15.3107 12.3241C15.592 12.6054 15.75 12.9869 15.75 13.3848V14.8848H12.75M2.25 13.3848C2.25 12.788 2.48705 12.2157 2.90901 11.7938C3.33097 11.3718 3.90326 11.1348 4.5 11.1348H9C9.59674 11.1348 10.169 11.3718 10.591 11.7938C11.0129 12.2157 11.25 12.788 11.25 13.3848V15.6348H2.25V13.3848Z" stroke="#666666" stroke-width="1.5"/>
</g>
</svg>
