<?xml version="1.0" encoding="UTF-8"?>
<svg width="16px" height="16px" viewBox="0 0 16 16" version="1.1" xmlns="http://www.w3.org/2000/svg" xmlns:xlink="http://www.w3.org/1999/xlink">
    <g id="页面-1" stroke="none" stroke-width="1" fill="none" fill-rule="evenodd">
        <g id="综合管理系统&gt;数据管理&gt;数据统计&gt;按卫星统计v1.1.1" transform="translate(-294.000000, -315.000000)">
            <g id="daily-icon" transform="translate(294.000000, 315.000000)">
                <rect id="矩形" fill="#AEBDD8" opacity="0" x="0" y="0" width="16" height="16"></rect>
                <path d="M6.27460291,4.32520064 L6.85793625,4.32520064 L8.02460291,4.32520064 L9.19126958,4.32520064 L9.77460291,4.32520064 M11.7498916,4.34068799 L12.4998916,4.34068799 L12.9998916,4.34068799 C13.5521764,4.34068799 13.9998916,4.78840324 13.9998916,5.34068799 L13.9998916,12.340688 C13.9998916,12.8929727 13.5521764,13.340688 12.9998916,13.340688 L2.99989163,13.340688 C2.44760688,13.340688 1.99989163,12.8929727 1.99989163,12.340688 L1.99989163,5.34068799 C1.99989163,4.78840324 2.44760688,4.34068799 2.99989163,4.34068799 L3.49989163,4.34068799 L3.49989163,4.34068799 L4.24989163,4.34068799" id="形状" stroke="#AEBDD8"  stroke-width="0.88"></path>
                <line x1="5.27533519" y1="2.86907973" x2="5.27533519" y2="5.11907973" id="直线-2" stroke="#AEBDD8" stroke-linecap="square"></line>
                <line x1="10.7637197" y1="2.87411311" x2="10.7637197" y2="5.12411311" id="直线-2备份" stroke="#AEBDD8" stroke-linecap="square"></line>
                <g id="D" transform="translate(6.207403, 6.575145)" fill="#AEBDD8" fill-rule="#AEBDD8">
                    <path d="M1.37570093,0 L0,0 L0,5 L1.37570093,5 C3.02056075,5 4,3.87142857 4,2.48571429 C4,1.10714286 3.02056075,0 1.37570093,0 Z M1.52325581,4 L1,4 L1,1 L1.52325581,1 C2.45348837,1 3,1.6536965 3,2.48832685 C3,3.30544747 2.45348837,4 1.52325581,4 Z" id="形状"></path>
                </g>
            </g>
        </g>
    </g>
</svg>