<?xml version="1.0" encoding="UTF-8"?>
<svg width="16px" height="16px" viewBox="0 0 16 16" version="1.1" xmlns="http://www.w3.org/2000/svg" xmlns:xlink="http://www.w3.org/1999/xlink">
    <title>daily icon</title>
    <g id="页面-1" stroke="none" stroke-width="1" fill="none" fill-rule="evenodd">
        <g id="综合管理系统&gt;数据管理&gt;数据统计&gt;按卫星统计v1.1.2" transform="translate(-294.000000, -315.000000)">
            <g id="daily-icon" transform="translate(294.000000, 315.000000)">
                <rect id="矩形" fill="#D8D8D8" opacity="0" x="0" y="0" width="16" height="16"></rect>
                <polyline id="路径" stroke="#AEBDD8" stroke-width="0.88" points="6.27460291 4.32520064 6.85793625 4.32520064 8.02460291 4.32520064 9.19126958 4.32520064 9.77460291 4.32520064"></polyline>
                <path d="M4.24989163,3.90068799 L4.24989163,4.78068799 L2.99989163,4.78068799 C2.72154012,4.78068799 2.49062133,4.98377162 2.44722109,5.24985308 L2.43989163,5.34068799 L2.43989163,12.340688 C2.43989163,12.6190395 2.64297527,12.8499583 2.90905672,12.8933585 L2.99989163,12.900688 L12.9998916,12.900688 C13.2782431,12.900688 13.5091619,12.6976043 13.5525622,12.4315229 L13.5598916,12.340688 L13.5598916,5.34068799 C13.5598916,5.06233647 13.356808,4.83141768 13.0907265,4.78801744 L12.9998916,4.78068799 L11.7498916,4.78068799 L11.7498916,3.90068799 L12.9998916,3.90068799 C13.7483999,3.90068799 14.3635224,4.47178055 14.4332997,5.20200638 L14.4398916,5.34068799 L14.4398916,12.340688 C14.4398916,13.0891963 13.8687991,13.7043187 13.1385732,13.7740961 L12.9998916,13.780688 L2.99989163,13.780688 C2.25138336,13.780688 1.6362609,13.2095954 1.56648355,12.4793696 L1.55989163,12.340688 L1.55989163,5.34068799 C1.55989163,4.59217971 2.13098419,3.97705726 2.86121002,3.9072799 L2.99989163,3.90068799 L4.24989163,3.90068799 Z" id="路径" fill="#AEBDD8"></path>
                <line x1="5.27533519" y1="2.86907973" x2="5.27533519" y2="5.11907973" id="直线-2" stroke="#AEBDD8" stroke-linecap="square"></line>
                <line x1="10.7637197" y1="2.87411311" x2="10.7637197" y2="5.12411311" id="直线-2备份" stroke="#AEBDD8" stroke-linecap="square"></line>
                <g id="D" transform="translate(6.207403, 6.575145)" fill="#AEBDD8" fill-rule="nonzero">
                    <path d="M1.37570093,0 L0,0 L0,5 L1.37570093,5 C3.02056075,5 4,3.87142857 4,2.48571429 C4,1.10714286 3.02056075,0 1.37570093,0 Z M1.52325581,4 L1,4 L1,1 L1.52325581,1 C2.45348837,1 3,1.6536965 3,2.48832685 C3,3.30544747 2.45348837,4 1.52325581,4 Z" id="形状"></path>
                </g>
            </g>
        </g>
    </g>
</svg>