<?xml version="1.0" encoding="UTF-8"?>
<svg width="24px" height="24px" viewBox="0 0 24 24" version="1.1" xmlns="http://www.w3.org/2000/svg" xmlns:xlink="http://www.w3.org/1999/xlink">
    <title>dashboard icon</title>
    <g id="页面-1" stroke="none" stroke-width="1" fill="none" fill-rule="evenodd">
        <g id="综合管理系统&gt;数据管理&gt;数据统计&gt;按卫星统计" transform="translate(-28.000000, -91.000000)">
            <g id="dashboard-icon" transform="translate(28.000000, 91.000000)">
                <rect id="矩形" fill="#D8D8D8" opacity="0" x="0" y="0" width="24" height="24"></rect>
                <path d="M4,3 L11,3 L11,3 L11,9 L3,9 L3,4 C3,3.44771525 3.44771525,3 4,3 Z M13,3 L20,3 C20.5522847,3 21,3.44771525 21,4 L21,13 L21,13 L13,13 L13,3 Z M13,15 L21,15 L21,20 C21,20.5522847 20.5522847,21 20,21 L13,21 L13,21 L13,15 Z M3,11 L11,11 L11,21 L4,21 C3.44771525,21 3,20.5522847 3,20 L3,11 L3,11 Z" id="形状结合" fill="#FFFFFF"></path>
            </g>
        </g>
    </g>
</svg>