<?xml version="1.0" encoding="UTF-8"?>
<svg width="24px" height="24px" viewBox="0 0 24 24" version="1.1" xmlns="http://www.w3.org/2000/svg" xmlns:xlink="http://www.w3.org/1999/xlink">
    <title>data management icon备份</title>
    <g id="页面-1" stroke="none" stroke-width="1" fill="none" fill-rule="evenodd">
        <g id="综合管理系统&gt;数据管理&gt;数据统计&gt;按卫星统计" transform="translate(-28.000000, -133.000000)">
            <g id="data-management-icon备份" transform="translate(28.000000, 133.000000)">
                <rect id="矩形" fill="#D8D8D8" opacity="0" x="0" y="0" width="24" height="24"></rect>
                <g id="编组" transform="translate(2.974001, 3.458695)" fill="#FFFFFF" fill-rule="nonzero" stroke="#FFFFFF" stroke-width="0.689230769">
                    <ellipse id="椭圆形" cx="9" cy="2.76923077" rx="9" ry="2.76923077"></ellipse>
                    <path d="M9.39328956,7.68334512 L9.48521634,7.68198312 C9.51136282,7.68155502 9.5374797,7.68109259 9.56356649,7.68059596 C9.81150389,7.67588277 10.0574302,7.66804866 10.3002188,7.65723241 C10.3676423,7.65422664 10.4349024,7.65098887 10.5019113,7.64752325 C10.6231162,7.64125655 10.7432459,7.6342582 10.8625059,7.62653331 C10.9147316,7.62314495 10.9659453,7.61968061 11.0169935,7.6160827 C11.1073721,7.60972118 11.198382,7.60284395 11.2888362,7.59554447 C11.3180478,7.59318094 11.3462613,7.59085744 11.3744198,7.58849293 C11.5097061,7.57714213 11.6444138,7.56477019 11.7777576,7.55146655 C11.7949624,7.54974308 11.8116402,7.54806201 11.8282965,7.54636638 C11.9587282,7.53309723 12.0882008,7.5188856 12.2162672,7.50379957 C12.2290497,7.50228624 12.2420419,7.50074515 12.2550195,7.49919506 C12.3734226,7.48505987 12.490463,7.47018824 12.6062314,7.45458865 C12.6565603,7.44779775 12.7063459,7.44092055 12.7558891,7.43390895 C12.9963692,7.3998921 13.2318492,7.36257475 13.4610126,7.32224644 C13.4759503,7.31960915 13.4910137,7.31694054 13.5060495,7.31425893 C13.744657,7.27171143 13.9762725,7.22589137 14.2003031,7.17699712 C14.230695,7.17035695 14.2607328,7.16371517 14.2906313,7.15701811 C14.4972963,7.11073477 14.6974856,7.06175686 14.8904867,7.01029444 L14.9523522,6.99364383 C16.8207972,7.50105922 17.9992572,8.24348998 17.9992572,9.07056691 C17.9992572,10.5999669 13.9698222,11.8397977 8.99925717,11.8397977 C4.02869217,11.8397977 -0.000742826198,10.5999669 -0.000742826198,9.07056691 C-0.000742826198,8.24348998 1.17770817,7.50105922 3.04616217,6.99364383 C3.06667752,6.99921512 3.08727606,7.00475808 3.10795716,7.01027252 C3.30102877,7.06175686 3.50121802,7.11073477 3.7080699,7.15706649 C3.73778157,7.16371517 3.76781935,7.17035695 3.79799477,7.17694297 C4.02224184,7.22589137 4.25385738,7.27171143 4.49240852,7.31425752 C4.50750067,7.31694054 4.52256407,7.31960915 4.53765486,7.3222647 C4.76666515,7.36257475 5.00214516,7.3998921 5.24337235,7.43402326 C5.29216843,7.44092055 5.34195406,7.44779775 5.39197724,7.45453905 C5.5080513,7.47018824 5.62509179,7.48505987 5.74334326,7.49918471 C5.75647249,7.50074515 5.76946469,7.50228624 5.7824714,7.50381832 C5.91031352,7.5188856 6.03978612,7.53309723 6.17058774,7.54641073 C6.18687412,7.54806201 6.20355192,7.54974308 6.22025111,7.55140954 C6.35410052,7.56477019 6.48880821,7.57714213 6.62479868,7.58855739 C6.65225307,7.59085744 6.68046655,7.59318094 6.70873432,7.5954632 C6.80013234,7.60284395 6.89114225,7.60972118 6.98268432,7.61616889 C7.03256904,7.61968061 7.08378272,7.62314495 7.13515783,7.62647446 C7.25526844,7.6342582 7.37539817,7.64125655 7.49634649,7.64751261 C7.5636119,7.65098887 7.63087202,7.65422664 7.69837466,7.65723388 C7.94108416,7.66804866 8.18701046,7.67588277 8.43566948,7.68061014 L8.51329801,7.68198312 L8.51329801,7.68198312 L8.60522479,7.68334512 C8.73586634,7.68507678 8.86722976,7.68595152 8.99925717,7.68595152 C9.13128459,7.68595152 9.26264801,7.68507678 9.39328956,7.68334512 Z" id="形状结合"></path>
                    <path d="M3.046905,13.1538462 C1.178451,13.6612615 0,14.4036923 0,15.2307692 C0,16.7601692 4.029435,18 9,18 C13.970565,18 18,16.7601692 18,15.2307692 C18,14.4036923 16.82154,13.6612615 14.953095,13.1538462 C13.366575,13.5846923 11.28249,13.8461538 9,13.8461538 C6.71751,13.8461538 4.633425,13.5846923 3.046905,13.1538462 Z" id="路径"></path>
                </g>
            </g>
        </g>
    </g>
</svg>