<?xml version="1.0" encoding="UTF-8"?>
<svg width="24px" height="24px" viewBox="0 0 24 24" version="1.1" xmlns="http://www.w3.org/2000/svg" xmlns:xlink="http://www.w3.org/1999/xlink">
    <g id="页面-1" stroke="none" stroke-width="1" fill="none" fill-rule="evenodd">
        <g id="综合管理系统&gt;数据管理&gt;数据列表备份" transform="translate(-769.000000, -448.000000)">
            <g id="data-null-icon" transform="translate(769.000000, 448.000000)">
                <rect id="矩形" fill="#fff" opacity="0" x="0" y="0" width="24" height="24" ></rect>
                <ellipse id="椭圆形" stroke="#232734" cx="12.2051282" cy="6.46153846" rx="8.20512821" ry="2.46153846"></ellipse>
                <path d="M6.77780513,8.30769231 C5.07437128,8.75872821 4,9.41866667 4,10.1538462 C4,11.5133128 7.67355897,12.6153846 12.2051282,12.6153846 C16.7366974,12.6153846 20.4102564,11.5133128 20.4102564,10.1538462 C20.4102564,9.41866667 19.3358769,8.75872821 17.6324513,8.30769231" id="路径" stroke="#232734"></path>
                <path d="M6.77780513,12 C5.07437128,12.4510359 4,13.1109744 4,13.8461538 C4,15.2056205 7.67355897,16.3076923 12.2051282,16.3076923 C16.7366974,16.3076923 20.4102564,15.2056205 20.4102564,13.8461538 C20.4102564,13.1109744 19.3358769,12.4510359 17.6324513,12" id="路径" stroke="#232734"></path>
                <path d="M6.77780513,15.6923077 C5.07437128,16.1433436 4,16.8032821 4,17.5384615 C4,18.8979282 7.67355897,20 12.2051282,20 C16.7366974,20 20.4102564,18.8979282 20.4102564,17.5384615 C20.4102564,16.8032821 19.3358769,16.1433436 17.6324513,15.6923077" id="路径" stroke="#232734"></path>
            </g>
        </g>
    </g>
</svg>