<?xml version="1.0" encoding="UTF-8"?>
<svg width="24px" height="24px" viewBox="0 0 24 24" version="1.1" xmlns="http://www.w3.org/2000/svg" xmlns:xlink="http://www.w3.org/1999/xlink">
    <title>data statistic icon</title>
    <g id="页面-1" stroke="none" stroke-width="1" fill="none" fill-rule="evenodd">
        <g id="综合管理系统&gt;数据管理&gt;数据统计&gt;按卫星统计" transform="translate(-145.000000, -133.000000)">
            <g id="data-statistic-icon" transform="translate(145.000000, 133.000000)">
                <rect id="矩形" fill="#D8D8D8" opacity="0" x="0" y="0" width="24" height="24"></rect>
                <g id="编组" transform="translate(2.812557, 4.063660)" stroke="#FFFFFF">
                    <path d="M14.25,2.35294118 L14.25,6.11764706 L14.25,6.58823529 C12.8463275,6.58823529 11.58487,7.19143529 10.7152875,8.15049412 C9.959705,8.98381176 9.5,10.0857882 9.5,11.2941176 C9.5,11.5665412 9.52337,11.8335529 9.56821,12.0933176 C9.8125025,13.5080471 10.6942925,14.7072471 11.9101975,15.3904 C10.64551,15.7692235 8.96686,16 7.125,16 C3.1899575,16 0,14.9465412 0,13.6470588 L0,9.88235294 L0,6.11764706 L0,2.35294118" id="路径"></path>
                    <path d="M14.25,2.35294118 C14.25,3.65242353 11.0600425,4.70588235 7.125,4.70588235 C3.1899575,4.70588235 0,3.65242353 0,2.35294118 C0,1.05344941 3.1899575,0 7.125,0 C11.0600425,0 14.25,1.05344941 14.25,2.35294118 Z" id="路径" stroke-width="0.715" fill="#FFFFFF" fill-rule="nonzero"></path>
                    <path d="M0,9.88235294 C0,11.1818353 3.1899575,12.2352941 7.125,12.2352941 C7.983325,12.2352941 8.8061675,12.1851765 9.56821,12.0933176" id="路径"></path>
                    <path d="M0,6.11764706 C0,7.41712941 3.1899575,8.47058824 7.125,8.47058824 C8.4342425,8.47058824 9.661025,8.35397647 10.7152875,8.15049412" id="路径"></path>
                    <path d="M19,11.2941176 C19,13.8930824 16.87333,16 14.25,16 C13.3993225,16 12.6008475,15.7784471 11.9101975,15.3904 C10.6942925,14.7072471 9.8125025,13.5080471 9.56821,12.0933176 C9.52337,11.8335529 9.5,11.5665412 9.5,11.2941176 C9.5,10.0857882 9.959705,8.98381176 10.7152875,8.15049412 C11.58487,7.19143529 12.8463275,6.58823529 14.25,6.58823529 C16.87333,6.58823529 19,8.69515294 19,11.2941176 Z" id="路径" stroke-width="0.715" fill="#FFFFFF" fill-rule="nonzero"></path>
                    <polyline id="路径" points="15.675 10.3529412 16.625 11.2941176 15.675 12.2352941"></polyline>
                    <polyline id="路径" points="12.825 12.2352941 11.875 11.2941176 12.825 10.3529412"></polyline>
                </g>
            </g>
        </g>
    </g>
</svg>