<?xml version="1.0" encoding="UTF-8"?>
<svg width="24px" height="24px" viewBox="0 0 24 24" version="1.1" xmlns="http://www.w3.org/2000/svg" xmlns:xlink="http://www.w3.org/1999/xlink">
    <title>data list icon</title>
    <g id="页面-1" stroke="none" stroke-width="1" fill="none" fill-rule="evenodd">
        <g id="综合管理系统&gt;数据管理&gt;数据统计&gt;按卫星统计" transform="translate(-145.000000, -168.000000)">
            <g id="data-list-icon" transform="translate(145.000000, 168.000000)">
                <rect id="矩形" fill="#D8D8D8" opacity="0" x="0" y="0" width="24" height="24"></rect>
                <g id="编组" transform="translate(2.812557, 4.063660)">
                    <path d="M14.25,2.35294118 L14.25,6.11764706 L14.25,8.47058824 C14.0049095,8.69696549 12.4081783,9.04043657 9.45980643,9.50100147 L9.56821,15.7019437 C8.50156466,15.9006479 7.68716133,16 7.125,16 C3.1899575,16 0,14.9465412 0,13.6470588 L0,9.88235294 L0,6.11764706 L0,2.35294118" id="路径" stroke="#FFFFFF"></path>
                    <path d="M14.25,2.35294118 C14.25,3.65242353 11.0600425,4.70588235 7.125,4.70588235 C3.1899575,4.70588235 0,3.65242353 0,2.35294118 C0,1.05344941 3.1899575,0 7.125,0 C11.0600425,0 14.25,1.05344941 14.25,2.35294118 Z" id="路径" stroke="#FFFFFF" stroke-width="0.715" fill="#FFFFFF" fill-rule="nonzero"></path>
                    <path d="M0,9.88235294 C0,11.1818353 3.1899575,12.2352941 7.125,12.2352941 C7.983325,12.2352941 8.8061675,12.1851765 9.56821,12.0933176" id="路径" stroke="#FFFFFF"></path>
                    <path d="M0,6.11764706 C0,7.41712941 3.1899575,8.47058824 7.125,8.47058824 C8.4342425,8.47058824 9.661025,8.35397647 10.7152875,8.15049412" id="路径" stroke="#FFFFFF"></path>
                    <rect id="矩形" stroke="#FFFFFF" x="9.41961287" y="6.60998789" width="9" height="9"></rect>
                    <rect id="矩形" fill="#FFFFFF" x="8.91961287" y="6.10998789" width="10" height="4"></rect>
                </g>
            </g>
        </g>
    </g>
</svg>