<svg width="17" height="17" viewBox="0 0 17 17" fill="none" xmlns="http://www.w3.org/2000/svg">
<g id="icon-wrapper" clip-path="url(#clip0_275_49693)">
<g id="general/calendar">
<path id="Vector" fill-rule="evenodd" clip-rule="evenodd" d="M4.33333 3.23161V2.56494H5.66667V3.23161H11V2.56494H12.3333V3.23161H13.6667C14.2189 3.23161 14.6667 3.67932 14.6667 4.23161V14.2316C14.6667 14.7839 14.219 15.2316 13.6667 15.2316H3C2.44772 15.2316 2 14.7839 2 14.2316V4.23161C2 3.67932 2.44772 3.23161 3 3.23161H4.33333ZM4.33333 4.56494H3.33333V7.56494H13.3333V4.56494H12.3333V5.23161H11V4.56494H5.66667V5.23161H4.33333V4.56494ZM13.3333 8.89827H3.33333V13.8983H13.3333V8.89827Z" fill="#666666"/>
</g>
</g>
<defs>
<clipPath id="clip0_275_49693">
<rect width="16" height="16" fill="white" transform="translate(0.333374 0.898438)"/>
</clipPath>
</defs>
</svg>
