<svg width="20" height="21" viewBox="0 0 20 21" fill="none" xmlns="http://www.w3.org/2000/svg">
<g id="&#233;&#154;&#144;&#232;&#151;&#143;icon">
<g id="Group 11">
<path id="Subtract" fill-rule="evenodd" clip-rule="evenodd" d="M3.78802 6.95885C1.61508 8.83789 1.33333 10.6894 1.33333 10.6894C1.33333 10.6894 1.69019 13.0345 4.69803 15.1247C6.27843 16.2463 8.11372 16.8071 10 16.8071C11.0753 16.8071 12.1193 16.6186 13.0969 16.2677L12.2697 15.4405C11.531 15.6658 10.7655 15.7875 10 15.7875C6.78823 15.7875 3.57647 13.6463 2.35294 10.6894C2.99676 9.54893 3.75342 8.56774 4.60855 7.77938L3.78802 6.95885ZM6.81767 9.9885C6.76506 10.2168 6.73725 10.4517 6.73725 10.6894C6.73725 12.4228 8.21568 14.0031 10 14.0031C10.2549 14.0031 10.5025 13.9709 10.7397 13.9106L9.7413 12.9121C8.82897 12.7691 8.00471 11.8973 7.83833 11.0092L6.81767 9.9885ZM12.1775 10.8561L13.0421 11.7207C13.1522 11.3914 13.2118 11.0436 13.2118 10.6894C13.2118 8.95609 11.7843 7.3757 10 7.3757C9.61606 7.3757 9.24629 7.44887 8.90237 7.58099L9.78164 8.46027C9.85402 8.45105 9.9269 8.44629 10 8.44629C11.1216 8.44629 12.2431 9.56786 12.1922 10.6894C12.1896 10.745 12.1847 10.8007 12.1775 10.8561ZM7.37618 6.0548C8.19959 5.75151 9.07661 5.59139 10 5.59139C13.2118 5.59139 16.4235 7.73256 17.6471 10.6894C17.1337 11.93 16.2704 13.027 15.2039 13.8825L15.9484 14.6271C17.1459 13.6428 18.1462 12.4244 18.6667 10.6894C18.6667 10.6894 18.1569 8.29335 15.302 6.25413C13.7216 5.13256 11.8863 4.57178 10 4.57178C8.79871 4.57178 7.63664 4.80701 6.56239 5.24101L7.37618 6.0548Z" fill="#9E9E9E"/>
<path id="Rectangle 10" d="M4.07424 5.74789C3.86749 5.54114 3.86749 5.20593 4.07424 4.99918C4.28099 4.79244 4.61619 4.79244 4.82294 4.99918L15.9257 16.102C16.1325 16.3087 16.1325 16.6439 15.9257 16.8507C15.719 17.0574 15.3838 17.0574 15.177 16.8507L4.07424 5.74789Z" fill="#9E9E9E"/>
</g>
</g>
</svg>
