<svg width="18" height="18" viewBox="0 0 18 18" fill="none" xmlns="http://www.w3.org/2000/svg">
<g id="general/storage">
<path id="Vector" fill-rule="evenodd" clip-rule="evenodd" d="M3 1.5C2.37868 1.5 1.875 2.00368 1.875 2.625V6V7.5V10.5V12V15.375C1.875 15.9963 2.37868 16.5 3 16.5H15C15.6213 16.5 16.125 15.9963 16.125 15.375V12V10.5V7.5V6V2.625C16.125 2.00368 15.6213 1.5 15 1.5H3ZM14.625 10.5H3.375V7.5H14.625V10.5ZM3.375 15V12H14.625V15H3.375ZM14.625 6V3H3.375V6H14.625ZM5.6325 12.75H4.125V14.2575H5.6325V12.75ZM4.125 3.75H5.6325V5.2575H4.125V3.75ZM5.6325 8.25H4.125V9.7575H5.6325V8.25Z" fill="#4E5969"/>
</g>
</svg>
