<svg width="18" height="19" viewBox="0 0 18 19" xmlns="http://www.w3.org/2000/svg">
  <g id="icon-wrapper" clip-path="url(#clip0_275_48978)">
    <g id="general/dashboard">
      <path id="Vector" fill-rule="evenodd" clip-rule="evenodd" d="M6.83906 6.60813L5.03997 5.19078C5.88452 4.39227 6.97106 3.83708 8.25001 3.68007V5.69727H9.75001V3.68006C10.9784 3.83084 12.0287 4.34887 12.8578 5.09638L11.1264 6.63696L12.1235 7.75757L13.8381 6.23196C14.3687 7.0241 14.7207 7.93809 14.8613 8.88477H12.5624V10.3848H14.9038C14.7822 11.6832 14.2394 12.95 13.1979 13.9753L14.2502 15.0442C15.8074 13.5112 16.4771 11.541 16.4278 9.61557C16.3814 7.80139 15.6976 6.0166 14.5101 4.64404C13.2111 3.14271 11.3073 2.13477 9.00001 2.13477C6.61168 2.13477 4.65707 3.21448 3.35717 4.80177C1.90414 6.57605 1.25905 8.99451 1.71288 11.2808C1.98345 12.6439 2.64452 13.9561 3.74983 15.0442L4.80215 13.9753C4.08594 13.2702 3.60746 12.4534 3.33805 11.5928L6.08504 10.521L5.53981 9.12357L3.07571 10.085C3.01799 8.77529 3.38066 7.45275 4.08567 6.34854L5.91079 7.7864L6.83906 6.60813ZM6.375 14.5098C6.375 13.3206 7.1657 12.3162 8.25 11.9935V7.75977H9.75V11.9935C10.8343 12.3162 11.625 13.3206 11.625 14.5098C11.625 15.9595 10.4498 17.1348 9 17.1348C7.55026 17.1348 6.375 15.9595 6.375 14.5098ZM7.875 14.5098C7.875 13.8884 8.37868 13.3848 9 13.3848C9.62132 13.3848 10.125 13.8884 10.125 14.5098C10.125 15.1311 9.62132 15.6348 9 15.6348C8.37868 15.6348 7.875 15.1311 7.875 14.5098Z" />
    </g>
  </g>
  <defs>
    <clipPath id="clip0_275_48978">
      <rect width="18" height="18" fill="white" transform="translate(0 0.634766)" />
    </clipPath>
  </defs>
</svg>