<?xml version="1.0" encoding="UTF-8"?>
<svg width="24px" height="24px" viewBox="0 0 24 24" version="1.1" xmlns="http://www.w3.org/2000/svg" xmlns:xlink="http://www.w3.org/1999/xlink">
    <title>tagged data list icon</title>
    <g id="页面-1" stroke="none" stroke-width="1" fill="none" fill-rule="evenodd">
        <g id="综合管理系统&gt;算法管理&gt;原始数据" transform="translate(-145.000000, -223.000000)">
            <g id="tagged-data-list-icon" transform="translate(145.000000, 223.000000)">
                <rect id="矩形" fill="#D8D8D8" opacity="0" x="0" y="0" width="24" height="24"></rect>
                <path d="M17.0625573,6.41660108 L17.0625573,10.181307 L17.0625573,12.5342481 C16.8174668,12.7606254 15.2207356,13.1040965 12.2723637,13.5646614 L12.3807673,19.7656036 C11.314122,19.9643078 10.4997186,20.0636599 9.93755729,20.0636599 C6.00251479,20.0636599 2.81255729,19.0102011 2.81255729,17.7107187 L2.81255729,13.9460128 L2.81255729,10.181307 L2.81255729,6.41660108" id="路径" stroke="#FFFFFF"></path>
                <path d="M17.0625573,6.41660108 C17.0625573,7.71608344 13.8725998,8.76954226 9.93755729,8.76954226 C6.00251479,8.76954226 2.81255729,7.71608344 2.81255729,6.41660108 C2.81255729,5.11710932 6.00251479,4.06365991 9.93755729,4.06365991 C13.8725998,4.06365991 17.0625573,5.11710932 17.0625573,6.41660108 Z" id="路径" stroke="#FFFFFF" stroke-width="0.715" fill="#FFFFFF" fill-rule="nonzero"></path>
                <path d="M2.81255729,13.9460128 C2.81255729,15.2454952 6.00251479,16.298954 9.93755729,16.298954 C10.7958823,16.298954 11.6187248,16.2488364 12.3807673,16.1569776" id="路径" stroke="#FFFFFF"></path>
                <path d="M2.81255729,10.181307 C2.81255729,11.4807893 6.00251479,12.5342481 9.93755729,12.5342481 C11.2467998,12.5342481 12.4735823,12.4176364 13.5278448,12.214154" id="路径" stroke="#FFFFFF"></path>
                <path d="M21.2321702,11.6736478 L21.2321702,20.3849524 L16.7321702,18.2622292 L12.2321702,20.3849524 L12.2321702,11.6736478 L21.2321702,11.6736478 Z" id="矩形" stroke="#FFFFFF"></path>
                <polygon id="矩形" fill="#FFFFFF" points="11.7218805 11.2888026 21.7218805 11.2888026 21.7218805 14.2888026 16.7218805 14.2888026 11.7218805 14.2888026"></polygon>
            </g>
        </g>
    </g>
</svg>