<svg width="120" height="43" viewBox="0 0 120 43" fill="none" xmlns="http://www.w3.org/2000/svg">
<g id="Group 3">
<path id="Vector" d="M61.3692 0.634766H59.0146C57.862 6.74299 33.1271 10.848 0.397827 11.6246V11.976H119.992V11.6C87.2444 10.848 62.5279 6.74299 61.3692 0.634766Z" fill="url(#paint0_linear_275_49006)"/>
<path id="Vector_2" d="M61.3692 23.8908H59.0146C57.862 17.7825 33.1271 13.6775 0.397827 12.9009V12.5249H119.992V12.9009C87.2444 13.6775 62.5279 17.7825 61.3692 23.8908Z" fill="url(#paint1_linear_275_49006)"/>
<path id="Vector_3" d="M84.3474 37.4202C83.9899 37.3031 83.6263 37.2045 83.3058 37.1182C82.2641 36.8408 81.1854 36.5573 81.1854 35.5588C81.1854 35.115 81.3888 34.0795 83.2256 34.0795C84.1496 34.0816 85.0404 34.4239 85.7281 35.041L85.7712 35.0841L86.5479 34.3322L86.5047 34.289C86.0902 33.871 85.592 33.5451 85.0429 33.3327C84.4938 33.1202 83.9061 33.0261 83.3181 33.0563C82.428 33.0137 81.5525 33.2938 80.8526 33.8453C80.575 34.0471 80.3486 34.3111 80.1912 34.6161C80.0339 34.9211 79.9501 35.2587 79.9465 35.6019C79.9465 37.0072 80.9204 37.5989 82.3812 38.0674C82.7202 38.1845 82.9976 38.2646 83.3181 38.3447C83.8707 38.4676 84.401 38.6755 84.8898 38.9611C85.086 39.0798 85.2491 39.2458 85.3644 39.444C85.4796 39.6422 85.5432 39.8661 85.5493 40.0952C85.5461 40.315 85.4881 40.5304 85.3804 40.722C85.2728 40.9136 85.119 41.0753 84.933 41.1924C84.4912 41.4628 83.9767 41.5898 83.4598 41.556C82.8781 41.5562 82.3035 41.4268 81.7779 41.1774C81.2524 40.9279 80.7889 40.5646 80.4211 40.1137L80.378 40.0644L79.5274 40.7732L79.5582 40.8225C80.3595 41.969 81.7648 42.5977 83.5153 42.5977C84.3817 42.6314 85.2303 42.3463 85.9007 41.7964C86.1862 41.5805 86.4173 41.3009 86.5757 40.9799C86.7341 40.6588 86.8153 40.3053 86.8129 39.9473C86.8248 39.5263 86.7087 39.1115 86.4801 38.7577C86.0178 38.0242 85.3336 37.753 84.3474 37.4202Z" fill="#231815"/>
<path id="Vector_4" d="M64.3893 38.1036L64.377 38.1283L64.9748 39.4042L67.7238 33.2651H66.4726L64.3893 38.1036Z" fill="#231815"/>
<path id="Vector_5" d="M74.3191 33.2651H73.1356V42.3073H74.3191V33.2651Z" fill="#231815"/>
<path id="Vector_6" d="M92.3848 33.2651H91.2014V42.3073H92.3848V33.2651Z" fill="#231815"/>
<path id="Vector_7" d="M118.858 33.2651V40.2609V42.0977L119.031 42.3073H119.986V33.2651H118.858Z" fill="#231815"/>
<path id="Vector_8" d="M113.181 33.2651H112.238V42.3073H113.366V35.3731L116.762 39.5336V37.6475L113.2 33.2898L113.181 33.2651Z" fill="#231815"/>
<path id="Vector_9" d="M105.859 34.4242C105.08 33.6081 104.041 33.0886 102.92 32.9551C101.8 32.8215 100.668 33.0822 99.719 33.6923C98.7699 34.3024 98.0628 35.2239 97.7192 36.2986C97.3756 37.3733 97.4168 38.5342 97.8359 39.5818C98.2549 40.6293 99.0256 41.4984 100.016 42.0396C101.006 42.5808 102.153 42.7605 103.261 42.5478C104.369 42.335 105.369 41.7432 106.088 40.8738C106.807 40.0044 107.201 38.9117 107.202 37.7834C107.219 37.1616 107.108 36.5429 106.877 35.9653C106.646 35.3877 106.299 34.8633 105.859 34.4242V34.4242ZM104.959 40.3599C104.647 40.6873 104.271 40.9463 103.854 41.1203C103.437 41.2944 102.988 41.3796 102.537 41.3707C102.089 41.3757 101.644 41.2891 101.231 41.1164C100.818 40.9436 100.444 40.6883 100.133 40.366C99.4869 39.6622 99.1286 38.7417 99.1286 37.7865C99.1286 36.8313 99.4869 35.9108 100.133 35.207C100.444 34.8848 100.818 34.6295 101.231 34.4567C101.644 34.284 102.089 34.1974 102.537 34.2023C102.981 34.2019 103.42 34.29 103.83 34.4614C104.239 34.6329 104.611 34.8843 104.922 35.2009C105.566 35.9033 105.927 36.82 105.934 37.7733C105.94 38.7265 105.593 39.6482 104.959 40.3599V40.3599Z" fill="#231815"/>
<path id="Vector_10" d="M29.7123 33.2345V33.1914H28.7261L24.7505 42.2582L24.7074 42.3507H25.8908L26.2545 41.5247H32.1531L32.5168 42.3507H33.7495L29.7123 33.2345ZM26.6305 40.668L27.3701 38.8743L29.2192 34.7077L31.7957 40.668H26.6305Z" fill="#231815"/>
<path id="Vector_11" d="M14.4387 33.1914H13.2738V34.2577H14.4387V33.1914Z" fill="#231815"/>
<path id="Vector_12" d="M53.6028 37.3833H51.8092V39.2879H53.6028V37.3833Z" fill="#231815"/>
<path id="Vector_13" d="M59.7974 33.2651H58.54L62.7744 42.2703L62.7929 42.3073H63.6743L63.8346 41.9498L59.8097 33.3021L59.7974 33.2651Z" fill="#231815"/>
<path id="Vector_14" d="M16.5405 42.3507H17.7486V34.2577H21.0338V33.1914H16.5343L16.5405 42.3507Z" fill="#231815"/>
<path id="Vector_15" d="M40.4987 33.1914H39.3276V42.3507H40.4987V33.1914Z" fill="#231815"/>
<path id="Vector_16" d="M44.8689 38.48C45.3616 38.2834 45.7837 37.9431 46.0805 37.5034C46.3773 37.0638 46.535 36.545 46.5331 36.0145C46.5506 35.661 46.4981 35.3074 46.3785 34.9742C46.259 34.641 46.0748 34.3348 45.8366 34.073C45.1207 33.4874 44.215 33.1848 43.291 33.2224H42.6006V34.2763H42.6623H43.217H43.3649L43.6916 34.3133C43.8231 34.3347 43.9529 34.3656 44.0799 34.4058H44.1231H44.1601L44.4066 34.5106L44.4744 34.5537H44.5052C44.5661 34.5876 44.6239 34.6268 44.6778 34.6708L44.7641 34.751C44.812 34.7936 44.8554 34.8411 44.8935 34.8927L44.9613 34.9852C44.9961 35.0384 45.027 35.094 45.0538 35.1516V35.1516C45.0687 35.1771 45.081 35.2039 45.0908 35.2317C45.119 35.3012 45.1397 35.3735 45.1524 35.4474C45.1524 35.4474 45.1524 35.4474 45.1524 35.4906C45.1559 35.511 45.1559 35.5318 45.1524 35.5522C45.1618 35.6712 45.1618 35.7907 45.1524 35.9097C45.1616 36.0143 45.1616 36.1195 45.1524 36.2241C45.1321 36.3263 45.1054 36.4272 45.0723 36.5261C44.9118 36.8955 44.6421 37.2068 44.2994 37.4184C43.9567 37.63 43.5575 37.7316 43.1554 37.7095H42.539V38.2889L45.3681 42.2399H46.792L44.2217 38.745L44.8689 38.48Z" fill="#231815"/>
<path id="Vector_17" d="M5.28558 37.4144C4.94041 37.2973 4.58292 37.211 4.24391 37.1247C3.19609 36.8597 2.10511 36.5823 2.10511 35.6269C2.10511 35.2016 2.30851 34.2154 4.16378 34.2154C5.09021 34.2143 5.98653 34.5444 6.6909 35.1461L6.74021 35.1831L7.53533 34.4496L7.48602 34.4003C7.05652 33.9908 6.54809 33.673 5.99175 33.4663C5.43541 33.2597 4.8428 33.1685 4.25007 33.1984C3.35398 33.1514 2.46939 33.4172 1.74761 33.9504C1.46795 34.14 1.23797 34.3941 1.07706 34.6913C0.916156 34.9884 0.829042 35.3199 0.823059 35.6577C0.823059 37.0138 1.81541 37.5808 3.28854 38.0123C3.63371 38.1232 3.9419 38.2034 4.23775 38.2773C4.79419 38.3917 5.33027 38.589 5.82799 38.8629C6.02098 38.9713 6.18294 39.1273 6.2984 39.3162C6.41387 39.505 6.47897 39.7203 6.4875 39.9415C6.48161 40.1548 6.42206 40.3632 6.31433 40.5475C6.20659 40.7317 6.05417 40.8858 5.87113 40.9955C5.42062 41.2539 4.90398 41.374 4.38568 41.3407C3.80194 41.3443 3.22431 41.2217 2.69237 40.9813C2.16043 40.7409 1.68676 40.3883 1.30383 39.9477L1.26069 39.9045L0.391602 40.5949L0.428582 40.6442C1.24219 41.7475 2.66601 42.3577 4.44116 42.3577C5.31218 42.3937 6.16792 42.1208 6.85733 41.5872C7.14438 41.3808 7.37765 41.1085 7.53747 40.7931C7.6973 40.4778 7.779 40.1286 7.77571 39.7751C7.78569 39.3669 7.6671 38.9658 7.43672 38.6286C6.97444 37.9938 6.2841 37.7349 5.28558 37.4144Z" fill="#231815"/>
</g>
<defs>
<linearGradient id="paint0_linear_275_49006" x1="60.1857" y1="1.31277" x2="60.1857" y2="23.8103" gradientUnits="userSpaceOnUse">
<stop stop-color="#74C6BE"/>
<stop offset="0.36" stop-color="#4774B9"/>
<stop offset="0.53" stop-color="#9070AF"/>
<stop offset="0.65" stop-color="#4774B9"/>
<stop offset="1" stop-color="#74C6BE"/>
</linearGradient>
<linearGradient id="paint1_linear_275_49006" x1="60.1857" y1="23.2189" x2="60.1857" y2="0.721424" gradientUnits="userSpaceOnUse">
<stop stop-color="#74C6BE"/>
<stop offset="0.36" stop-color="#4774B9"/>
<stop offset="0.53" stop-color="#9070AF"/>
<stop offset="0.65" stop-color="#4774B9"/>
<stop offset="1" stop-color="#74C6BE"/>
</linearGradient>
</defs>
</svg>
