<?xml version="1.0" encoding="UTF-8"?>
<svg width="16px" height="16px" viewBox="0 0 16 16" version="1.1" xmlns="http://www.w3.org/2000/svg" xmlns:xlink="http://www.w3.org/1999/xlink">
    <title>消息</title>
    <g id="组件" stroke="none" stroke-width="1" fill="none" fill-rule="evenodd" opacity="0.826227679">
        <g id="头部/管理中心" transform="translate(-1186.000000, -20.000000)">
            <g id="编组-15备份-3" transform="translate(1186.000000, 18.000000)">
                <g id="消息" transform="translate(0.000000, 2.000000)">
                    <rect id="矩形" x="0" y="0" width="16" height="16"></rect>
                    <g id="编组-16" transform="translate(2.000000, 0.000000)" stroke="#FFFFFF">
                        <path d="M5.92105263,2.57894737 C8.53713829,2.57894737 10.6578947,4.69970382 10.6578947,7.31578947 L10.6578947,13.6315789 L10.6578947,13.6315789 L1.18421053,13.6315789 L1.18421053,7.31578947 C1.18421053,4.69970382 3.30496697,2.57894737 5.92105263,2.57894737 Z" id="矩形"></path>
                        <path d="M3.15789474,6.63909774 C3.15789474,5.70478144 3.86481355,4.94736842 4.73684211,4.94736842" id="路径" stroke-linecap="round"></path>
                        <path d="M4.34210526,14.0263158 C4.34210526,14.8983443 5.04902408,15.6052632 5.92105263,15.6052632 C6.79308118,15.6052632 7.5,14.8983443 7.5,14.0263158" id="路径" stroke-linecap="round"></path>
                        <line x1="5.92105263" y1="2.57894737" x2="6" y2="0.5" id="路径-3" stroke-linecap="round"></line>
                        <line x1="0" y1="13.6315789" x2="11.8421053" y2="13.6315789" id="路径-2" stroke-linecap="round"></line>
                    </g>
                </g>
            </g>
        </g>
    </g>
</svg>