<svg width="16" height="16" viewBox="0 0 16 16" fill="none" xmlns="http://www.w3.org/2000/svg">
<g clip-path="url(#clip0_3_2)">
<circle cx="8.0008" cy="4.7631" r="3.62678" stroke="white"/>
<mask id="path-2-inside-1_3_2" fill="white">
<path fill-rule="evenodd" clip-rule="evenodd" d="M8.01058 22.2125H7.9895C7.99301 22.2125 7.99653 22.2125 8.00004 22.2125C8.00355 22.2125 8.00707 22.2125 8.01058 22.2125ZM15.0566 14.0896C15.1332 14.6365 14.6781 15.0868 14.1258 15.0868H1.87428C1.322 15.0868 0.866912 14.6365 0.943504 14.0896C1.42849 10.6262 4.40302 7.961 8.00004 7.961C11.5971 7.961 14.5716 10.6262 15.0566 14.0896Z"/>
</mask>
<path d="M8.01058 22.2125L8.01194 23.2125L8.01058 21.2125V22.2125ZM7.9895 22.2125V21.2125L7.98814 23.2125L7.9895 22.2125ZM15.0566 14.0896L16.0469 13.9509L15.0566 14.0896ZM8.01058 21.2125H7.9895V23.2125H8.01058V21.2125ZM8.00004 21.2125C7.99706 21.2125 7.99401 21.2125 7.99086 21.2125L7.98814 23.2125C7.99201 23.2125 7.99599 23.2125 8.00004 23.2125V21.2125ZM8.00922 21.2125C8.00607 21.2125 8.00302 21.2125 8.00004 21.2125V23.2125C8.00409 23.2125 8.00807 23.2125 8.01194 23.2125L8.00922 21.2125ZM1.87428 16.0868H14.1258V14.0868H1.87428V16.0868ZM1.93384 14.2282C2.35064 11.2519 4.90866 8.961 8.00004 8.961V6.961C3.89739 6.961 0.506353 10.0005 -0.0468332 13.9509L1.93384 14.2282ZM8.00004 8.961C11.0914 8.961 13.6494 11.2519 14.0662 14.2282L16.0469 13.9509C15.4937 10.0005 12.1027 6.961 8.00004 6.961V8.961ZM14.1258 16.0868C15.1864 16.0868 16.2209 15.1936 16.0469 13.9509L14.0662 14.2282C14.0635 14.2086 14.065 14.1816 14.0744 14.1541C14.0832 14.1283 14.0956 14.1112 14.1047 14.1017C14.1209 14.0848 14.1303 14.0868 14.1258 14.0868V16.0868ZM1.87428 14.0868C1.86973 14.0868 1.87917 14.0848 1.89537 14.1017C1.90447 14.1112 1.9169 14.1282 1.92568 14.1541C1.93504 14.1816 1.93659 14.2086 1.93384 14.2282L-0.0468332 13.9509C-0.220857 15.1936 0.813726 16.0868 1.87428 16.0868V14.0868Z" fill="white" mask="url(#path-2-inside-1_3_2)"/>
</g>
<defs>
<clipPath id="clip0_3_2">
<rect width="16" height="16" fill="white"/>
</clipPath>
</defs>
</svg>
