<?xml version="1.0" encoding="UTF-8"?>
<svg width="24px" height="24px" viewBox="0 0 24 24" version="1.1" xmlns="http://www.w3.org/2000/svg" xmlns:xlink="http://www.w3.org/1999/xlink">
    <title>original data icon</title>
    <g id="页面-1" stroke="none" stroke-width="1" fill="none" fill-rule="evenodd">
        <g id="综合管理系统&gt;算法管理&gt;原始数据" transform="translate(-145.000000, -179.000000)">
            <g id="original-data-icon" transform="translate(145.000000, 179.000000)">
                <rect id="矩形" fill="#D8D8D8" opacity="0" x="0" y="0" width="24" height="24"></rect>
                <path d="M20,6.8 C20,6.8 20,16.82492 20,17.6 C20,18.92548 16.418249,20 11.99998,20 C7.58171105,20 4,18.92548 4,17.6 C4,16.85692 4,6.8 4,6.8" id="路径" stroke="#FFFFFF"></path>
                <path d="M19.99996,14 C19.99996,15.32548 16.418249,16.4 11.99998,16.4 C7.58171105,16.4 4,15.32548 4,14" id="路径" stroke="#FFFFFF"></path>
                <path d="M19.99996,10.4 C19.99996,11.72548 16.418249,12.8 11.99998,12.8 C7.58171105,12.8 4,11.72548 4,10.4" id="路径" stroke="#FFFFFF"></path>
                <ellipse id="椭圆形" stroke="#FFFFFF" fill="#FFFFFF" cx="11.99998" cy="6.4" rx="7.99998" ry="2.4"></ellipse>
            </g>
        </g>
    </g>
</svg>