<svg width="14" height="14" viewBox="0 0 14 14" fill="none" xmlns="http://www.w3.org/2000/svg">
<g id="suffix">
<path id="Vector" fill-rule="evenodd" clip-rule="evenodd" d="M4.08301 4.22917C4.08301 2.61834 5.38884 1.3125 6.99967 1.3125C8.61051 1.3125 9.91634 2.61834 9.91634 4.22917V4.52083H11.3747C12.019 4.52083 12.5413 5.04317 12.5413 5.6875V11.5208C12.5413 12.1652 12.019 12.6875 11.3747 12.6875H2.62467C1.98034 12.6875 1.45801 12.1652 1.45801 11.5208V5.6875C1.45801 5.04317 1.98034 4.52083 2.62467 4.52083H4.08301V4.22917ZM5.24967 4.52083H8.74967V4.22917C8.74967 3.26267 7.96617 2.47917 6.99967 2.47917C6.03318 2.47917 5.24967 3.26267 5.24967 4.22917V4.52083ZM2.62467 5.6875V11.5208H11.3747V5.6875H2.62467ZM6.99967 8.02083C6.67751 8.02083 6.41634 8.282 6.41634 8.60417C6.41634 8.92633 6.67751 9.1875 6.99967 9.1875C7.32184 9.1875 7.58301 8.92633 7.58301 8.60417C7.58301 8.282 7.32184 8.02083 6.99967 8.02083ZM5.24967 8.60417C5.24967 7.63767 6.03318 6.85417 6.99967 6.85417C7.96617 6.85417 8.74967 7.63767 8.74967 8.60417C8.74967 9.57066 7.96617 10.3542 6.99967 10.3542C6.03318 10.3542 5.24967 9.57066 5.24967 8.60417Z" fill="#4E5969"/>
</g>
</svg>
