<?xml version="1.0" encoding="UTF-8"?>
<svg width="24px" height="24px" viewBox="0 0 24 24" version="1.1" xmlns="http://www.w3.org/2000/svg" xmlns:xlink="http://www.w3.org/1999/xlink">
    <title>refresh QR icon</title>
    <g id="页面-1" stroke="none" stroke-width="1" fill="none" fill-rule="evenodd">
        <g id="slicing-v1.2" transform="translate(-172.000000, -301.000000)">
            <g id="refresh-QR-icon" transform="translate(172.000000, 301.000000)">
                <rect id="矩形" fill-opacity="0" fill="#D8D8D8" x="0" y="0" width="24" height="24"></rect>
                <g id="编组-2" transform="translate(12.279702, 12.032674) rotate(-90.000000) translate(-12.279702, -12.032674) translate(6.779702, 6.532674)" stroke="#FFFFFF" stroke-width="1.08">
                    <path d="M4.4044161,6.5955839 L4.4044161,8.8490873 L2.1509127,8.8490873 L2.1509127,6.5955839 L4.4044161,6.5955839 Z M4.4044161,2.1509127 L4.4044161,4.4044161 L2.1509127,4.4044161 L2.1509127,2.1509127 L4.4044161,2.1509127 Z M8.8490873,2.1509127 L8.8490873,4.4044161 L6.5955839,4.4044161 L6.5955839,2.1509127 L8.8490873,2.1509127 Z" id="形状结合" transform="translate(5.500000, 5.500000) rotate(45.000000) translate(-5.500000, -5.500000) "></path>
                    <path d="M3.93729741,8.35304984 L7.27080081,8.35304984 M5.60404911,10.0198015 L5.60404911,6.68629814" id="形状结合" stroke-linecap="square"></path>
                </g>
                <path d="M20.31005,8 C18.83735,5.03655 15.7793,3 12.2456,3 C8.71185,3 5.7227,5.03655 4.25,8" id="路径" stroke="#FFFFFF" stroke-linecap="round"></path>
                <line x1="4.25" y1="4" x2="4.25" y2="8" id="路径" stroke="#FFFFFF" stroke-linecap="round"></line>
                <line x1="7.64015" y1="8" x2="4.250065" y2="8" id="路径" stroke="#FFFFFF" stroke-linecap="round"></line>
                <path d="M4.25,16 C5.7227,18.96345 8.78075,21 12.3145,21 C15.8482,21 18.83735,18.96345 20.31005,16" id="路径" stroke="#FFFFFF" stroke-linecap="round"></path>
                <line x1="20.31005" y1="20" x2="20.31005" y2="16" id="路径" stroke="#FFFFFF" stroke-linecap="round"></line>
                <line x1="16.9199" y1="16" x2="20.31" y2="16" id="路径" stroke="#FFFFFF" stroke-linecap="round"></line>
            </g>
        </g>
    </g>
</svg>