<svg width="15" height="15" viewBox="0 0 15 15" fill="none" xmlns="http://www.w3.org/2000/svg">
<g id="interactive-button/refresh">
<path id="Vector" fill-rule="evenodd" clip-rule="evenodd" d="M7.33337 3.8151C5.07821 3.8151 3.25004 5.64327 3.25004 7.89844C3.25004 10.1536 5.07821 11.9818 7.33337 11.9818C9.23524 11.9818 10.8348 10.681 11.2881 8.9197L12.4179 9.2105C11.8352 11.4747 9.78046 13.1484 7.33337 13.1484C4.43388 13.1484 2.08337 10.7979 2.08337 7.89844C2.08337 4.99894 4.43388 2.64844 7.33337 2.64844C8.98322 2.64844 10.4546 3.40937 11.4167 4.59851V3.23177H12.5834V6.73177H9.08337V5.5651H10.685C9.94672 4.50674 8.72036 3.8151 7.33337 3.8151Z" fill="#4E5969"/>
</g>
</svg>
