<?xml version="1.0" encoding="UTF-8"?>
<svg width="17px" height="17px" viewBox="0 0 17 17" version="1.1" xmlns="http://www.w3.org/2000/svg" xmlns:xlink="http://www.w3.org/1999/xlink">
    <title>satellite icon</title>
    <g id="页面-1" stroke="none" stroke-width="1" fill="none" fill-rule="evenodd">
        <g id="综合管理系统&gt;数据管理&gt;数据列表" transform="translate(-318.000000, -139.000000)">
            <g id="Sentinel" transform="translate(318.000000, 135.000000)">
                <g id="satellite-icon" transform="translate(0.000000, 4.000000)">
                    <rect id="矩形" fill="#D8D8D8" opacity="0" x="0" y="0" width="16" height="16"></rect>
                    <path d="M4.26727255,7.20061444 L5.07400455,8.49165552 L2.52986027,10.0814133 L1.72312826,8.79037223 L4.26727255,7.20061444 Z M9.38040642,7.24546551 L10.2239939,8.65801619 L8.41841488,9.83852397 L7.57482736,8.42597329 L9.38040642,7.24546551 Z M7.07067202,4.06238782 L7.16578035,4.07495164 L8.35326406,5.69896636 L6.62029621,6.78184486 L5.74436103,5.38005553 C5.67119444,5.26296453 5.65241504,5.1273019 5.68120004,5.00262038 C5.70998504,4.87793885 5.78633443,4.76423844 5.90342544,4.69107185 L5.90342544,4.69107185 L6.7883452,4.13811262 C6.9054362,4.06494604 7.04109883,4.04616664 7.16578035,4.07495164 Z M12.3052936,2.17790142 L13.1120256,3.46894249 L10.5678814,5.05870029 L9.76114935,3.76765921 L12.3052936,2.17790142 Z" id="形状" stroke="#FFFFFF"></path>
                    <path d="M5.55215657,8.74107027 C5.55215657,11.502494 7.79073283,13.7410703 10.5521566,13.7410703 C13.3135803,13.7410703 15.5521566,11.502494 15.5521566,8.74107027" id="路径" stroke="#FFFFFF" transform="translate(10.552157, 11.241070) rotate(-32.000000) translate(-10.552157, -11.241070) "></path>
                    <path d="M7.02223731,8.89302218 C7.02223731,10.5498764 8.36538306,11.8930222 10.0222373,11.8930222 C11.6790916,11.8930222 13.0222373,10.5498764 13.0222373,8.89302218" id="路径" stroke="#FFFFFF" transform="translate(10.022237, 10.393022) rotate(-32.000000) translate(-10.022237, -10.393022) "></path>
                    <line x1="4.89699579" y1="7.57542074" x2="6.29200183" y2="6.70372422" id="路径" stroke="#FFFFFF"></line>
                    <line x1="8.588846" y1="5.26849669" x2="9.86091814" y2="4.4736178" id="路径备份-2" stroke="#FFFFFF"></line>
                </g>
            </g>
        </g>
    </g>
</svg>