<svg width="15" height="15" viewBox="0 0 15 15" fill="none" xmlns="http://www.w3.org/2000/svg">
<g id="interactive-button/search">
<path id="Vector" fill-rule="evenodd" clip-rule="evenodd" d="M9.56655 4.35679C7.97191 2.76215 5.38649 2.76215 3.79185 4.35679C2.19721 5.95143 2.19721 8.53685 3.79185 10.1315C5.38649 11.7261 7.97191 11.7261 9.56655 10.1315C11.1612 8.53685 11.1612 5.95143 9.56655 4.35679ZM2.96689 3.53183C5.01714 1.48158 8.34126 1.48158 10.3915 3.53183C12.3023 5.44266 12.4323 8.45999 10.7813 10.5213L12.8664 12.6064L12.0414 13.4313L9.95637 11.3463C7.89505 12.9972 4.87772 12.8673 2.96689 10.9565C0.916636 8.9062 0.916636 5.58208 2.96689 3.53183Z" fill="white"/>
</g>
</svg>
