<?xml version="1.0" encoding="UTF-8"?>
<svg width="16px" height="16px" viewBox="0 0 16 16" version="1.1" xmlns="http://www.w3.org/2000/svg" xmlns:xlink="http://www.w3.org/1999/xlink">
    <title>data upload image icon</title>
    <g id="页面-1" stroke="none" stroke-width="1" fill="none" fill-rule="evenodd">
        <g id="slicing-v1.1" transform="translate(-1251.000000, -115.000000)">
            <g id="数据上传备份" transform="translate(1179.000000, 111.000000)">
                <g id="data-upload-image-icon" transform="translate(72.000000, 4.000000)">
                    <rect id="矩形" fill="#D8D8D8" opacity="0" x="0" y="0" width="16" height="16"></rect>
                    <path d="M13.6510637,5.83798666 C13.6510637,6.3416247 13.6510637,6.7305401 13.6510637,7.00473286 C13.6510637,7.95762544 13.6510637,8.73540285 13.6510637,9.33806512 C13.6510637,10.3751022 13.6510637,11.9306577 13.6510637,14.0047318 C13.6510637,14.3729318 13.352597,14.6713984 12.984397,14.6713984 L3.65106366,14.6713984 C3.28287366,14.6713984 2.98439699,14.3729318 2.98439699,14.0047318 L2.98439699,2.00473178 C2.98439699,1.63654178 3.28287366,1.33806512 3.65106366,1.33806512 C5.13254514,1.33806512 6.24365625,1.33806512 6.98439699,1.33806512 C7.41487004,1.33806512 8.40832541,1.33806512 9.08896296,1.33806512" id="路径" stroke="#FFFFFF" fill-rule="nonzero"></path>
                    <line x1="10.1845639" y1="4.81962531" x2="13.012991" y2="1.99119818" id="路径" stroke="#FFFFFF"></line>
                    <polyline id="路径" stroke="#FFFFFF" transform="translate(12.423735, 2.580454) rotate(-315.000000) translate(-12.423735, -2.580454) " points="10.7570687 3.41378717 12.4237353 1.7471205 14.090402 3.41378717"></polyline>
                    <path d="M11,7.33333333 L11,11.3333333 C11,12.0697 9.65686667,12.6666667 8,12.6666667 C6.34314667,12.6666667 5,12.0697 5,11.3333333 L5,7.33333333" id="路径" stroke="#FFFFFF"></path>
                    <path d="M11,9.33333333 C11,10.0697 9.65686667,10.6666667 8,10.6666667 C6.34314667,10.6666667 5,10.0697 5,9.33333333" id="路径" stroke="#FFFFFF"></path>
                    <path d="M11,7.33333333 C11,8.0697 9.65686667,8.66666667 8,8.66666667 C6.34314667,8.66666667 5,8.0697 5,7.33333333 C5,6.59695333 6.34314667,6 8,6 C9.65686667,6 11,6.59695333 11,7.33333333 Z" id="路径" stroke="#FFFFFF" fill-rule="nonzero"></path>
                </g>
            </g>
        </g>
    </g>
</svg>