<svg width="14" height="14" viewBox="0 0 14 14" fill="none" xmlns="http://www.w3.org/2000/svg">
<g id="suffix">
<path id="Vector" fill-rule="evenodd" clip-rule="evenodd" d="M5.24967 4.37504C5.24967 3.40854 6.03318 2.62504 6.99967 2.62504C7.96617 2.62504 8.74967 3.40854 8.74967 4.37504C8.74967 5.34154 7.96617 6.12504 6.99967 6.12504C6.03318 6.12504 5.24967 5.34154 5.24967 4.37504ZM6.99967 1.45837C5.38884 1.45837 4.08301 2.76421 4.08301 4.37504C4.08301 5.98587 5.38884 7.29171 6.99967 7.29171C8.61051 7.29171 9.91634 5.98587 9.91634 4.37504C9.91634 2.76421 8.61051 1.45837 6.99967 1.45837ZM4.66634 7.87504C3.8268 7.87504 3.03021 8.13087 2.4333 8.63615C1.82713 9.14927 1.45801 9.89555 1.45801 10.7917V11.6667C1.45801 12.15 1.84976 12.5417 2.33301 12.5417H11.6663C12.1496 12.5417 12.5413 12.15 12.5413 11.6667V10.7917C12.5413 9.89555 12.1722 9.14927 11.5661 8.63615C10.9691 8.13087 10.1726 7.87504 9.33301 7.87504H4.66634ZM2.62467 10.7917C2.62467 10.2381 2.84318 9.81773 3.18708 9.52662C3.54023 9.22767 4.05614 9.04171 4.66634 9.04171H9.33301C9.94321 9.04171 10.4591 9.22767 10.8123 9.52662C11.1562 9.81773 11.3747 10.2381 11.3747 10.7917V11.375H2.62467V10.7917Z" fill="#4E5969"/>
</g>
</svg>
