<svg width="24" height="24" viewBox="0 0 24 24" fill="none" xmlns="http://www.w3.org/2000/svg">
<g id="weather">
<g id="Group 427318796">
<path id="Union" fill-rule="evenodd" clip-rule="evenodd" d="M8.62536 20.148C8.24268 19.9894 8.06095 19.5507 8.21946 19.168L8.93638 17.4372C9.09489 17.0546 9.53362 16.8728 9.9163 17.0313C10.299 17.1899 10.4807 17.6286 10.3222 18.0113L9.60528 19.7421C9.44677 20.1247 9.00804 20.3065 8.62536 20.148ZM14.0844 6.9687C13.7017 6.81019 13.52 6.37146 13.6785 5.98878L14.3954 4.25804C14.5539 3.87536 14.9926 3.69363 15.3753 3.85215C15.758 4.01066 15.9397 4.44939 15.7812 4.83207L15.0643 6.5628C14.9058 6.94548 14.4671 7.12721 14.0844 6.9687ZM16.2993 12.0001C16.2993 14.3749 14.3742 16.3 11.9993 16.3C9.62453 16.3 7.69936 14.3749 7.69936 12.0001C7.69936 9.62524 9.62453 7.70007 11.9993 7.70007C14.3742 7.70007 16.2993 9.62524 16.2993 12.0001ZM4.25811 14.3952C3.87542 14.5537 3.6937 14.9924 3.85221 15.3751C4.01072 15.7578 4.44945 15.9395 4.83213 15.781L6.55689 15.0666C6.93958 14.9081 7.1213 14.4693 6.96279 14.0866C6.80428 13.704 6.36555 13.5222 5.98287 13.6808L4.25811 14.3952ZM17.4384 8.9357C17.0558 9.09421 16.874 9.53294 17.0325 9.91562C17.1911 10.2983 17.6298 10.48 18.0125 10.3215L19.7421 9.60507C20.1248 9.44656 20.3065 9.00783 20.148 8.62515C19.9895 8.24246 19.5508 8.06074 19.1681 8.21925L17.4384 8.9357ZM3.85221 8.62509C4.01072 8.24241 4.44945 8.06068 4.83213 8.2192L6.56257 8.93597C6.94525 9.09448 7.12698 9.53321 6.96847 9.91589C6.80995 10.2986 6.37123 10.4803 5.98854 10.3218L4.25811 9.60502C3.87542 9.4465 3.6937 9.00778 3.85221 8.62509ZM17.034 14.0852C17.1925 13.7025 17.6312 13.5208 18.0139 13.6793L19.7421 14.3951C20.1248 14.5536 20.3065 14.9924 20.148 15.375C19.9895 15.7577 19.5508 15.9394 19.1681 15.7809L17.4399 15.0651C17.0572 14.9066 16.8755 14.4678 17.034 14.0852ZM9.60528 4.25805C9.44677 3.87537 9.00804 3.69364 8.62536 3.85216C8.24268 4.01067 8.06095 4.44939 8.21946 4.83208L8.93531 6.56029C9.09383 6.94298 9.53255 7.1247 9.91524 6.96619C10.2979 6.80768 10.4796 6.36895 10.3211 5.98627L9.60528 4.25805ZM15.0654 17.4399C14.9069 17.0572 14.4681 16.8755 14.0855 17.034C13.7028 17.1925 13.521 17.6312 13.6796 18.0139L14.3954 19.7421C14.5539 20.1248 14.9926 20.3065 15.3753 20.148C15.758 19.9895 15.9397 19.5507 15.7812 19.168L15.0654 17.4399Z" fill="url(#paint0_linear_687_71930)"/>
</g>
</g>
<defs>
<linearGradient id="paint0_linear_687_71930" x1="12.0001" y1="3.79486" x2="12.0001" y2="20.2053" gradientUnits="userSpaceOnUse">
<stop stop-color="#FED88F"/>
<stop offset="1" stop-color="#FFC873"/>
</linearGradient>
</defs>
</svg>
