<svg width="24" height="24" viewBox="0 0 24 24" fill="none" xmlns="http://www.w3.org/2000/svg">
<g id="weather">
<g id="Group 427318796">
<path id="Union" fill-rule="evenodd" clip-rule="evenodd" d="M7.23973 17.865C6.85705 17.7065 6.67532 17.2678 6.83383 16.8851L7.4368 15.4294C7.59531 15.0467 8.03404 14.865 8.41672 15.0235C8.79941 15.182 8.98113 15.6208 8.82262 16.0034L8.21965 17.4591C8.06114 17.8418 7.62241 18.0235 7.23973 17.865ZM11.8311 6.78058C11.4484 6.62207 11.2666 6.18334 11.4252 5.80066L12.0281 4.34502C12.1866 3.96234 12.6253 3.78061 13.008 3.93912C13.3907 4.09764 13.5724 4.53636 13.4139 4.91904L12.811 6.37468C12.6525 6.75736 12.2137 6.93909 11.8311 6.78058ZM13.7401 10.902C13.7401 12.8994 12.121 14.5185 10.1236 14.5185C8.12628 14.5185 6.50711 12.8994 6.50711 10.902C6.50711 8.90468 8.12628 7.28552 10.1236 7.28552C12.121 7.28552 13.7401 8.90468 13.7401 10.902ZM3.5667 12.8064C3.18402 12.9649 3.00229 13.4036 3.1608 13.7863C3.31931 14.169 3.75804 14.3507 4.14072 14.1922L5.59134 13.5913C5.97402 13.4328 6.15575 12.9941 5.99724 12.6114C5.83872 12.2287 5.4 12.047 5.01731 12.2055L3.5667 12.8064ZM14.652 8.21468C14.2694 8.37319 14.0876 8.81191 14.2461 9.1946C14.4047 9.57728 14.8434 9.75901 15.2261 9.6005L16.6808 8.99792C17.0635 8.83941 17.2452 8.40068 17.0867 8.018C16.9282 7.63532 16.4895 7.45359 16.1068 7.6121L14.652 8.21468ZM3.1608 8.01802C3.31931 7.63533 3.75804 7.45361 4.14072 7.61212L5.59611 8.21496C5.9788 8.37347 6.16052 8.8122 6.00201 9.19488C5.8435 9.57757 5.40477 9.75929 5.02209 9.60078L3.5667 8.99794C3.18402 8.83943 3.00229 8.4007 3.1608 8.01802ZM14.2474 12.6102C14.4059 12.2275 14.8446 12.0458 15.2273 12.2043L16.6808 12.8064C17.0635 12.9649 17.2452 13.4036 17.0867 13.7863C16.9282 14.169 16.4895 14.3507 16.1068 14.1922L14.6532 13.5901C14.2706 13.4316 14.0888 12.9929 14.2474 12.6102ZM8.21965 4.34509C8.06114 3.9624 7.62241 3.78068 7.23973 3.93919C6.85705 4.0977 6.67532 4.53643 6.83383 4.91911L7.4359 6.37263C7.59441 6.75531 8.03314 6.93704 8.41582 6.77853C8.79851 6.62001 8.98023 6.18129 8.82172 5.79861L8.21965 4.34509ZM12.8119 15.4317C12.6534 15.049 12.2146 14.8673 11.832 15.0258C11.4493 15.1843 11.2675 15.623 11.4261 16.0057L12.0281 17.4592C12.1866 17.8419 12.6253 18.0236 13.008 17.8651C13.3907 17.7066 13.5724 17.2678 13.4139 16.8852L12.8119 15.4317Z" fill="url(#paint0_linear_687_71941)"/>
<path id="Union_2" fill-rule="evenodd" clip-rule="evenodd" d="M18.3023 14.3665C18.3235 14.1963 18.3343 14.0231 18.3343 13.8472C18.3343 11.5443 16.4674 9.67731 14.1644 9.67731C12.24 9.67731 10.6201 10.9809 10.1395 12.7531C9.73665 12.4407 9.23084 12.2547 8.68159 12.2547C7.44616 12.2547 6.4305 13.1957 6.31225 14.4001C5.05997 14.6019 4.10352 15.6877 4.10352 16.9969C4.10352 18.4496 5.2812 19.6273 6.73394 19.6273H18.4731C19.9258 19.6273 21.1035 18.4496 21.1035 16.9969C21.1035 15.5441 19.9258 14.3665 18.4731 14.3665H18.3023Z" fill="url(#paint1_linear_687_71941)"/>
</g>
</g>
<defs>
<linearGradient id="paint0_linear_687_71941" x1="10.1238" y1="3.88184" x2="10.1238" y2="17.9224" gradientUnits="userSpaceOnUse">
<stop stop-color="#FED88F"/>
<stop offset="1" stop-color="#FFC873"/>
</linearGradient>
<linearGradient id="paint1_linear_687_71941" x1="12.6035" y1="9.67731" x2="12.6035" y2="19.6273" gradientUnits="userSpaceOnUse">
<stop stop-color="#DCE2E4"/>
<stop offset="1" stop-color="#CED3D7"/>
</linearGradient>
</defs>
</svg>
