<svg width="24" height="24" viewBox="0 0 24 24" fill="none" xmlns="http://www.w3.org/2000/svg">
<g id="weather">
<g id="Group 427318796">
<path id="Union" fill-rule="evenodd" clip-rule="evenodd" d="M17.6988 9.06524C17.7199 8.89514 17.7308 8.72186 17.7308 8.54603C17.7308 6.24304 15.8639 4.3761 13.5609 4.3761C11.6365 4.3761 10.0166 5.67966 9.53596 7.45193C9.13314 7.1395 8.62733 6.95351 8.07808 6.95351C6.84264 6.95351 5.82698 7.8945 5.70874 9.09887C4.45646 9.30065 3.5 10.3865 3.5 11.6957C3.5 13.1484 4.67768 14.3261 6.13042 14.3261H17.8696C19.3223 14.3261 20.5 13.1484 20.5 11.6957C20.5 10.2429 19.3223 9.06524 17.8696 9.06524H17.6988Z" fill="url(#paint0_linear_687_72007)"/>
</g>
<path id="Vector 308" d="M7.74121 16.326L7.22357 18.2579" stroke="#CED3D7" stroke-width="1.5" stroke-linecap="round"/>
<path id="Vector 310" d="M16.7764 16.326L16.2587 18.2579" stroke="#CED3D7" stroke-width="1.5" stroke-linecap="round"/>
<path id="Union_2" fill-rule="evenodd" clip-rule="evenodd" d="M11.1338 17.8219L10.9439 18.1509C10.8058 18.39 10.8878 18.6958 11.1269 18.8339C11.366 18.9719 11.6718 18.89 11.8099 18.6509L11.9998 18.3219L12.1899 18.651C12.3279 18.8901 12.6337 18.9721 12.8729 18.834C13.112 18.6959 13.194 18.3901 13.0559 18.151L12.8659 17.8219L13.2459 17.8219C13.522 17.8219 13.7459 17.5981 13.7459 17.3219C13.7459 17.0458 13.522 16.8219 13.2459 16.8219L12.8658 16.8219L13.0559 16.4928C13.194 16.2536 13.112 15.9478 12.8729 15.8097C12.6337 15.6717 12.3279 15.7536 12.1899 15.9928L11.9998 16.3219L11.8099 15.9929C11.6718 15.7537 11.366 15.6718 11.1269 15.8099C10.8877 15.948 10.8058 16.2537 10.9439 16.4929L11.1339 16.8219L10.7539 16.8219C10.4778 16.8219 10.2539 17.0458 10.2539 17.3219C10.2539 17.5981 10.4778 17.8219 10.7539 17.8219L11.1338 17.8219Z" fill="#CED3D7"/>
</g>
<defs>
<linearGradient id="paint0_linear_687_72007" x1="12" y1="4.3761" x2="12" y2="14.3261" gradientUnits="userSpaceOnUse">
<stop stop-color="#DCE2E4"/>
<stop offset="0.0001" stop-color="#D9DEE1"/>
<stop offset="1" stop-color="#CED3D7"/>
</linearGradient>
</defs>
</svg>
