<svg width="24" height="24" viewBox="0 0 24 24" fill="none" xmlns="http://www.w3.org/2000/svg">
<g id="weather">
<g id="Group 427318796">
<path id="Union" fill-rule="evenodd" clip-rule="evenodd" d="M18.2015 11.6889C18.2245 11.5038 18.2363 11.3152 18.2363 11.1239C18.2363 8.61767 16.2046 6.586 13.6984 6.586C11.6042 6.586 9.84134 8.00462 9.31835 9.93331C8.87996 9.59325 8.32947 9.39081 7.7317 9.39081C6.38723 9.39081 5.28195 10.4149 5.1533 11.7255C3.79068 11.9452 2.75 13.1268 2.75 14.5514C2.75 16.1323 4.03159 17.4139 5.61252 17.4139H18.3875C19.9684 17.4139 21.25 16.1323 21.25 14.5514C21.25 12.9705 19.9684 11.6889 18.3875 11.6889H18.2015Z" fill="url(#paint0_linear_687_71952)"/>
</g>
</g>
<defs>
<linearGradient id="paint0_linear_687_71952" x1="12" y1="6.586" x2="12" y2="17.4139" gradientUnits="userSpaceOnUse">
<stop stop-color="#DCE2E4"/>
<stop offset="1" stop-color="#CED3D7"/>
</linearGradient>
</defs>
</svg>
