<svg width="24" height="24" viewBox="0 0 24 24" fill="none" xmlns="http://www.w3.org/2000/svg">
<g id="weather">
<path id="Subtract" fill-rule="evenodd" clip-rule="evenodd" d="M17.7308 8.54603C17.7308 8.72186 17.7199 8.89514 17.6988 9.06524H17.8696C19.3223 9.06524 20.5 10.2429 20.5 11.6957C20.5 13.1484 19.3223 14.3261 17.8696 14.3261H16.1738L17.1039 13.0704C17.5439 12.4765 17.1199 11.6347 16.3807 11.6347H14.8476V10.5511C14.8476 10.0541 14.4446 9.65112 13.9476 9.65112H10.7258C10.3094 9.65112 9.94733 9.93683 9.8505 10.3419L8.99773 13.9091C8.96349 14.0523 8.96541 14.1942 8.99683 14.3261H6.13042C4.67768 14.3261 3.5 13.1484 3.5 11.6957C3.5 10.3865 4.45646 9.30065 5.70874 9.09887C5.82698 7.8945 6.84264 6.95351 8.07808 6.95351C8.62733 6.95351 9.13314 7.1395 9.53596 7.45193C10.0166 5.67966 11.6365 4.3761 13.5609 4.3761C15.8639 4.3761 17.7308 6.24304 17.7308 8.54603ZM15.3027 14.3261H11.4586C11.441 14.321 11.4224 14.3183 11.4032 14.3183H9.87307C9.74381 14.3183 9.64849 14.1975 9.67855 14.0718L10.5313 10.5046C10.5528 10.4146 10.6333 10.3511 10.7258 10.3511H13.9476C14.058 10.3511 14.1476 10.4407 14.1476 10.5511V12.1347C14.1476 12.2452 14.2371 12.3347 14.3476 12.3347H16.3807C16.545 12.3347 16.6392 12.5218 16.5414 12.6538L15.3027 14.3261Z" fill="url(#paint0_linear_687_71996)"/>
<path id="Vector 313" d="M13.9474 10.3511H10.7257C10.6332 10.3511 10.5527 10.4146 10.5312 10.5046L9.67842 14.0718C9.64837 14.1975 9.74368 14.3183 9.87294 14.3183H11.4031C11.5135 14.3183 11.6031 14.4078 11.6031 14.5183V18.7144C11.6031 18.9072 11.849 18.9883 11.9638 18.8334L16.5413 12.6537C16.6391 12.5217 16.5449 12.3347 16.3806 12.3347H14.3474C14.237 12.3347 14.1474 12.2452 14.1474 12.1347V10.5511C14.1474 10.4406 14.0579 10.3511 13.9474 10.3511Z" fill="url(#paint1_linear_687_71996)"/>
</g>
<defs>
<linearGradient id="paint0_linear_687_71996" x1="12" y1="4.3761" x2="12" y2="14.3261" gradientUnits="userSpaceOnUse">
<stop stop-color="#DCE2E4"/>
<stop offset="0.0001" stop-color="#D9DEE1"/>
<stop offset="1" stop-color="#CED3D7"/>
</linearGradient>
<linearGradient id="paint1_linear_687_71996" x1="13.1982" y1="10.3511" x2="13.1982" y2="19.3204" gradientUnits="userSpaceOnUse">
<stop stop-color="#FED88F"/>
<stop offset="1" stop-color="#FFC873"/>
</linearGradient>
</defs>
</svg>
