<svg width="24" height="24" viewBox="0 0 24 24" fill="none" xmlns="http://www.w3.org/2000/svg">
<g id="weather">
<g id="Group 427318796">
<path id="Union" fill-rule="evenodd" clip-rule="evenodd" d="M18.2015 9.06766C18.2245 8.88256 18.2363 8.69399 18.2363 8.50265C18.2363 5.99646 16.2046 3.96478 13.6984 3.96478C11.6042 3.96478 9.84134 5.3834 9.31835 7.31209C8.87996 6.97203 8.32947 6.76959 7.7317 6.76959C6.38723 6.76959 5.28195 7.79365 5.1533 9.1043C3.79068 9.32403 2.75 10.5056 2.75 11.9302C2.75 13.5111 4.03159 14.7927 5.61252 14.7927H18.3875C19.9684 14.7927 21.25 13.5111 21.25 11.9302C21.25 10.3493 19.9684 9.06766 18.3875 9.06766H18.2015Z" fill="url(#paint0_linear_687_72018)"/>
</g>
<path id="Union_2" fill-rule="evenodd" clip-rule="evenodd" d="M4.50195 16.5427C4.50195 16.1285 4.83774 15.7927 5.25195 15.7927H7.25195C7.66617 15.7927 8.00195 16.1285 8.00195 16.5427C8.00195 16.9569 7.66617 17.2927 7.25195 17.2927H5.25195C4.83774 17.2927 4.50195 16.9569 4.50195 16.5427ZM9.44824 16.5427C9.44824 16.1285 9.78403 15.7927 10.1982 15.7927C10.6125 15.7927 10.9482 16.1285 10.9482 16.5427C10.9482 16.9569 10.6125 17.2927 10.1982 17.2927C9.78403 17.2927 9.44824 16.9569 9.44824 16.5427ZM16.2783 18.5352C15.8641 18.5352 15.5283 18.871 15.5283 19.2852C15.5283 19.6994 15.8641 20.0352 16.2783 20.0352C16.6925 20.0352 17.0283 19.6994 17.0283 19.2852C17.0283 18.871 16.6925 18.5352 16.2783 18.5352ZM12.3945 16.5427C12.3945 16.1285 12.7303 15.7927 13.1445 15.7927H18.748C19.1623 15.7927 19.498 16.1285 19.498 16.5427C19.498 16.9569 19.1623 17.2927 18.748 17.2927H13.1445C12.7303 17.2927 12.3945 16.9569 12.3945 16.5427ZM8.1748 18.5352C7.76059 18.5352 7.4248 18.871 7.4248 19.2852C7.4248 19.6994 7.76059 20.0352 8.1748 20.0352H13.7783C14.1925 20.0352 14.5283 19.6994 14.5283 19.2852C14.5283 18.871 14.1925 18.5352 13.7783 18.5352H8.1748Z" fill="#CED3D7"/>
</g>
<defs>
<linearGradient id="paint0_linear_687_72018" x1="12" y1="3.96478" x2="12" y2="14.7927" gradientUnits="userSpaceOnUse">
<stop stop-color="#DCE2E4"/>
<stop offset="1" stop-color="#CED3D7"/>
</linearGradient>
</defs>
</svg>
