<?xml version="1.0" encoding="UTF-8"?>
<svg width="16px" height="16px" viewBox="0 0 16 16" version="1.1" xmlns="http://www.w3.org/2000/svg" xmlns:xlink="http://www.w3.org/1999/xlink">
    <g id="页面-1" stroke="none" stroke-width="1" fill="none" fill-rule="evenodd">
        <g id="综合管理系统&gt;数据管理&gt;数据统计&gt;按卫星统计" transform="translate(-294.000000, -543.000000)">
            <g id="weekly-icon" transform="translate(294.000000, 543.000000)">
                <rect id="矩形" fill="#AEBDD8" opacity="0" x="0" y="0" width="16" height="16" stroke="#AEBDD8"></rect>
                <path d="M6.27460291,4.32520064 L6.85793625,4.32520064 L8.02460291,4.32520064 L9.19126958,4.32520064 L9.77460291,4.32520064 M11.7498916,4.34068799 L12.4998916,4.34068799 L12.9998916,4.34068799 C13.5521764,4.34068799 13.9998916,4.78840324 13.9998916,5.34068799 L13.9998916,12.340688 C13.9998916,12.8929727 13.5521764,13.340688 12.9998916,13.340688 L2.99989163,13.340688 C2.44760688,13.340688 1.99989163,12.8929727 1.99989163,12.340688 L1.99989163,5.34068799 C1.99989163,4.78840324 2.44760688,4.34068799 2.99989163,4.34068799 L3.49989163,4.34068799 L3.49989163,4.34068799 L4.24989163,4.34068799" id="形状" stroke="#AEBDD8" stroke-width="0.88"></path>
                <line x1="5.27533519" y1="2.86907973" x2="5.27533519" y2="5.11907973" id="直线-2" stroke="#AEBDD8" stroke-linecap="square"></line>
                <line x1="10.7637197" y1="2.87411311" x2="10.7637197" y2="5.12411311" id="直线-2备份" stroke="#AEBDD8" stroke-linecap="square"></line>
                <path d="M5.9288486,6.72956465 L7.0338486,10.0020646 L7.5323486,8.52456465 L6.8663486,6.72956465 L7.8438486,6.72956465 L7.9913486,7.16656465 L8.1388486,6.72956465 L9.1163486,6.72956465 L8.4493486,8.52356465 L8.9488486,10.0020646 L10.0538486,6.72956465 L11.0313486,6.72956465 L9.3993486,11.1240646 L8.4983486,11.1240646 L7.9903486,9.75856465 L7.4843486,11.1240646 L6.5833486,11.1240646 L4.9513486,6.72956465 L5.9288486,6.72956465 Z" id="形状结合" fill="#AEBDD8" fill-rule="nonzero"></path>
            </g>
        </g>
    </g>
</svg>