<svg width="16" height="16" viewBox="0 0 16 16" fill="none" xmlns="http://www.w3.org/2000/svg">
<g id="icon-wrapper" clip-path="url(#clip0_915_88478)">
<g id="general/location">
<path id="Vector" fill-rule="evenodd" clip-rule="evenodd" d="M3.66634 6.8018C3.66634 4.31706 5.62309 2.33333 7.99967 2.33333C10.3763 2.33333 12.333 4.31706 12.333 6.8018C12.333 7.33823 12.0879 8.04179 11.6364 8.84991C11.1941 9.64168 10.5956 10.4608 9.98362 11.209C9.3737 11.9548 8.76196 12.6162 8.30179 13.0918C8.19145 13.2059 8.09003 13.309 7.99967 13.3999C7.90932 13.309 7.8079 13.2059 7.69756 13.0918C7.23739 12.6162 6.62565 11.9548 6.01573 11.209C5.40377 10.4608 4.80527 9.64168 4.36292 8.84991C3.91143 8.04179 3.66634 7.33823 3.66634 6.8018ZM7.5431 14.8191C7.54321 14.8192 7.5433 14.8193 7.99967 14.3333C8.45605 14.8193 8.45614 14.8192 8.45625 14.8191L7.99967 15.2479L7.5431 14.8191ZM7.5431 14.8191L7.99967 14.3333L8.45625 14.8191L8.45753 14.8179L8.46083 14.8148L8.47274 14.8035C8.483 14.7938 8.49786 14.7797 8.51701 14.7613C8.55532 14.7246 8.61081 14.6711 8.68104 14.6023C8.82146 14.4647 9.02103 14.266 9.26006 14.0189C9.73739 13.5255 10.3757 12.8358 11.0157 12.0531C11.6538 11.273 12.3053 10.3865 12.8004 9.50022C13.2864 8.6303 13.6663 7.6834 13.6663 6.8018C13.6663 3.61443 11.1459 1 7.99967 1C4.85341 1 2.33301 3.61443 2.33301 6.8018C2.33301 7.6834 2.71292 8.6303 3.19893 9.50022C3.69408 10.3865 4.34558 11.273 4.98362 12.0531C5.6237 12.8358 6.26196 13.5255 6.73929 14.0189C6.97832 14.266 7.17789 14.4647 7.31831 14.6023C7.38854 14.6711 7.44403 14.7246 7.48234 14.7613L7.50209 14.7802L7.52661 14.8035L7.53852 14.8148L7.54181 14.8179L7.5431 14.8191ZM6.99967 6.33333C6.99967 5.78105 7.44739 5.33333 7.99967 5.33333C8.55196 5.33333 8.99967 5.78105 8.99967 6.33333C8.99967 6.88562 8.55196 7.33333 7.99967 7.33333C7.44739 7.33333 6.99967 6.88562 6.99967 6.33333ZM7.99967 4C6.71101 4 5.66634 5.04467 5.66634 6.33333C5.66634 7.622 6.71101 8.66667 7.99967 8.66667C9.28834 8.66667 10.333 7.622 10.333 6.33333C10.333 5.04467 9.28834 4 7.99967 4Z" fill="#666666"/>
</g>
</g>
<defs>
<clipPath id="clip0_915_88478">
<rect width="16" height="16" fill="white"/>
</clipPath>
</defs>
</svg>
